<svg width="32" height="25" viewBox="0 0 32 25" fill="none" xmlns="http://www.w3.org/2000/svg">
<path d="M9.67045 24.4434C7.79924 24.4434 6.19318 23.9699 4.85227 23.023C3.51894 22.0684 2.49242 20.6934 1.77273 18.898C1.06061 17.0949 0.704545 14.9245 0.704545 12.3866C0.712121 9.84873 1.07197 7.68964 1.78409 5.90933C2.50379 4.12146 3.5303 2.75782 4.86364 1.81843C6.20455 0.879031 7.80682 0.409334 9.67045 0.409334C11.5341 0.409334 13.1364 0.879031 14.4773 1.81843C15.8182 2.75782 16.8447 4.12146 17.5568 5.90933C18.2765 7.69721 18.6364 9.8563 18.6364 12.3866C18.6364 14.9321 18.2765 17.1063 17.5568 18.9093C16.8447 20.7048 15.8182 22.076 14.4773 23.023C13.1439 23.9699 11.5417 24.4434 9.67045 24.4434ZM9.67045 20.8866C11.125 20.8866 12.2727 20.1707 13.1136 18.7389C13.9621 17.2995 14.3864 15.1821 14.3864 12.3866C14.3864 10.5381 14.1932 8.98509 13.8068 7.72752C13.4205 6.46994 12.875 5.52297 12.1705 4.88661C11.4659 4.24267 10.6326 3.9207 9.67045 3.9207C8.22348 3.9207 7.07955 4.64039 6.23864 6.07979C5.39773 7.51161 4.97349 9.61388 4.96591 12.3866C4.95833 14.2427 5.14394 15.8033 5.52273 17.0684C5.90909 18.3336 6.45455 19.2881 7.15909 19.9321C7.86364 20.5684 8.70076 20.8866 9.67045 20.8866ZM31.8778 0.727516V24.0002H27.6619V4.82979H27.5256L22.0824 8.30706V4.44343L27.8665 0.727516H31.8778Z" fill="url(#paint0_linear_978_4)"/>
<defs>
<linearGradient id="paint0_linear_978_4" x1="49" y1="32.0002" x2="-6.98817" y2="20.046" gradientUnits="userSpaceOnUse">
<stop stop-color="#00796D"/>
<stop offset="1" stop-color="#38C682"/>
</linearGradient>
</defs>
</svg>
