<svg width="108" height="108" viewBox="0 0 108 108" fill="none" xmlns="http://www.w3.org/2000/svg">
<rect y="-0.000244141" width="108" height="108" rx="54" fill="url(#paint0_linear_2907_232)"/>
<rect x="11" y="10.9998" width="86" height="86" rx="43" fill="white"/>
<rect x="11" y="10.9998" width="86" height="86" rx="43" stroke="url(#paint1_linear_2907_232)" stroke-width="2"/>
<path d="M47.5004 32.3331C41.8237 32.3331 37.2087 36.9481 37.2087 42.6248C37.2087 48.1931 41.5637 52.6998 47.2404 52.8948C47.4137 52.8731 47.5871 52.8731 47.7171 52.8948C47.7604 52.8948 47.7821 52.8948 47.8254 52.8948C47.8471 52.8948 47.8471 52.8948 47.8687 52.8948C53.4154 52.6998 57.7704 48.1931 57.7921 42.6248C57.7921 36.9481 53.1771 32.3331 47.5004 32.3331Z" fill="url(#paint2_linear_2907_232)"/>
<path d="M58.5071 58.6581C52.4621 54.6281 42.6037 54.6281 36.5154 58.6581C33.7637 60.4998 32.2471 62.9914 32.2471 65.6564C32.2471 68.3214 33.7637 70.7914 36.4937 72.6114C39.5271 74.6481 43.5137 75.6664 47.5004 75.6664C51.4871 75.6664 55.4737 74.6481 58.5071 72.6114C61.2371 70.7698 62.7537 68.2998 62.7537 65.6131C62.7321 62.9481 61.2371 60.4781 58.5071 58.6581Z" fill="url(#paint3_linear_2907_232)"/>
<path d="M71.3121 43.9031C71.6587 48.1064 68.6687 51.7898 64.5304 52.2881C64.5087 52.2881 64.5087 52.2881 64.4871 52.2881H64.4221C64.2921 52.2881 64.1621 52.2881 64.0537 52.3314C61.9521 52.4398 60.0237 51.7681 58.5721 50.5331C60.8037 48.5398 62.0821 45.5498 61.8221 42.2998C61.6704 40.5448 61.0637 38.9414 60.1537 37.5764C60.9771 37.1648 61.9304 36.9048 62.9054 36.8181C67.1521 36.4498 70.9437 39.6131 71.3121 43.9031Z" fill="url(#paint4_linear_2907_232)"/>
<path d="M75.6454 63.9448C75.4721 66.0464 74.1287 67.8664 71.8754 69.1014C69.7087 70.2931 66.9787 70.8564 64.2704 70.7914C65.8304 69.3831 66.7404 67.6281 66.9137 65.7648C67.1304 63.0781 65.8521 60.4998 63.2954 58.4414C61.8437 57.2931 60.1537 56.3831 58.3121 55.7114C63.1004 54.3248 69.1237 55.2564 72.8287 58.2464C74.8221 59.8498 75.8404 61.8648 75.6454 63.9448Z" fill="url(#paint5_linear_2907_232)"/>
<defs>
<linearGradient id="paint0_linear_2907_232" x1="6.3245e-07" y1="53.5043" x2="108" y2="53.5043" gradientUnits="userSpaceOnUse">
<stop stop-color="white"/>
<stop offset="1" stop-color="white" stop-opacity="0"/>
</linearGradient>
<linearGradient id="paint1_linear_2907_232" x1="98" y1="97.9998" x2="-2.11054" y2="80.8997" gradientUnits="userSpaceOnUse">
<stop stop-color="#00796D"/>
<stop offset="1" stop-color="#38C682"/>
</linearGradient>
<linearGradient id="paint2_linear_2907_232" x1="75.669" y1="75.6664" x2="26.2771" y2="67.2124" gradientUnits="userSpaceOnUse">
<stop stop-color="#00796D"/>
<stop offset="1" stop-color="#38C682"/>
</linearGradient>
<linearGradient id="paint3_linear_2907_232" x1="75.669" y1="75.6664" x2="26.2771" y2="67.2124" gradientUnits="userSpaceOnUse">
<stop stop-color="#00796D"/>
<stop offset="1" stop-color="#38C682"/>
</linearGradient>
<linearGradient id="paint4_linear_2907_232" x1="75.669" y1="75.6664" x2="26.2771" y2="67.2124" gradientUnits="userSpaceOnUse">
<stop stop-color="#00796D"/>
<stop offset="1" stop-color="#38C682"/>
</linearGradient>
<linearGradient id="paint5_linear_2907_232" x1="75.669" y1="75.6664" x2="26.2771" y2="67.2124" gradientUnits="userSpaceOnUse">
<stop stop-color="#00796D"/>
<stop offset="1" stop-color="#38C682"/>
</linearGradient>
</defs>
</svg>
