<svg width="108" height="108" viewBox="0 0 108 108" fill="none" xmlns="http://www.w3.org/2000/svg">
<rect y="-0.000244141" width="108" height="108" rx="54" fill="url(#paint0_linear_2907_218)"/>
<rect x="11" y="10.9998" width="86" height="86" rx="43" fill="white"/>
<rect x="11" y="10.9998" width="86" height="86" rx="43" stroke="url(#paint1_linear_2907_218)" stroke-width="2"/>
<path d="M53.8702 32.7881L48.6485 44.9431H43.4268C42.5602 44.9431 41.7152 45.0081 40.8918 45.1814L43.0585 39.9814L43.1452 39.7864L43.2752 39.4398C43.3402 39.2881 43.3835 39.1581 43.4485 39.0498C45.9619 33.2214 48.7785 31.4014 53.8702 32.7881Z" fill="url(#paint2_linear_2907_218)"/>
<path d="M68.5818 45.5281L68.5385 45.5064C67.2385 45.1381 65.9168 44.9431 64.5735 44.9431H51.0102L55.8852 33.6114L55.9502 33.4598C56.2535 33.5681 56.5785 33.7198 56.9035 33.8281L61.6919 35.8431C64.3569 36.9481 66.2202 38.0964 67.3685 39.4831C67.5635 39.7431 67.7369 39.9814 67.9102 40.2631C68.1052 40.5664 68.2569 40.8698 68.3435 41.1948C68.4302 41.3898 68.4952 41.5631 68.5385 41.7581C68.8635 42.8631 68.8852 44.1198 68.5818 45.5281Z" fill="url(#paint3_linear_2907_218)"/>
<path d="M55.1269 66.2631H55.6685C56.3185 66.2631 56.8602 65.6781 56.8602 64.9631C56.8602 64.0531 56.6002 63.9231 56.0368 63.7064L55.1269 63.3814V66.2631Z" fill="url(#paint4_linear_2907_218)"/>
<path d="M67.6285 48.6264C66.6535 48.3448 65.6352 48.1931 64.5735 48.1931H43.4268C41.9535 48.1931 40.5668 48.4748 39.2668 49.0381C35.4968 50.6631 32.8535 54.4114 32.8535 58.7664V62.9914C32.8535 63.5114 32.8968 64.0098 32.9618 64.5298C33.4385 71.4198 37.1218 75.1031 44.0118 75.5581C44.5102 75.6231 45.0085 75.6664 45.5502 75.6664H62.4502C70.4669 75.6664 74.6918 71.8531 75.1035 64.2698C75.1252 63.8581 75.1469 63.4248 75.1469 62.9914V58.7664C75.1469 53.9781 71.9619 49.9481 67.6285 48.6264ZM56.7735 61.5831C57.7702 61.9298 59.1135 62.6664 59.1135 64.9631C59.1135 66.9347 57.5752 68.5164 55.6685 68.5164H55.1269V68.9931C55.1269 69.6214 54.6285 70.1198 54.0002 70.1198C53.3719 70.1198 52.8735 69.6214 52.8735 68.9931V68.5164H52.6785C50.5985 68.5164 48.8869 66.7614 48.8869 64.5947C48.8869 63.9664 49.3852 63.4681 50.0135 63.4681C50.6418 63.4681 51.1402 63.9664 51.1402 64.5947C51.1402 65.5047 51.8335 66.2631 52.6785 66.2631H52.8735V62.6014L51.2269 62.0164C50.2302 61.6698 48.8869 60.9331 48.8869 58.6364C48.8869 56.6648 50.4252 55.0831 52.3319 55.0831H52.8735V54.6064C52.8735 53.9781 53.3719 53.4798 54.0002 53.4798C54.6285 53.4798 55.1269 53.9781 55.1269 54.6064V55.0831H55.3218C57.4018 55.0831 59.1135 56.8381 59.1135 59.0048C59.1135 59.6331 58.6152 60.1314 57.9869 60.1314C57.3585 60.1314 56.8602 59.6331 56.8602 59.0048C56.8602 58.0948 56.1668 57.3364 55.3218 57.3364H55.1269V60.9981L56.7735 61.5831Z" fill="url(#paint5_linear_2907_218)"/>
<path d="M51.1402 58.6364C51.1402 59.5464 51.4002 59.6764 51.9635 59.8931L52.8735 60.2181V57.3364H52.3319C51.6602 57.3364 51.1402 57.9214 51.1402 58.6364Z" fill="url(#paint6_linear_2907_218)"/>
<defs>
<linearGradient id="paint0_linear_2907_218" x1="6.3245e-07" y1="53.5043" x2="108" y2="53.5043" gradientUnits="userSpaceOnUse">
<stop stop-color="white"/>
<stop offset="1" stop-color="white" stop-opacity="0"/>
</linearGradient>
<linearGradient id="paint1_linear_2907_218" x1="98" y1="97.9998" x2="-2.11054" y2="80.8997" gradientUnits="userSpaceOnUse">
<stop stop-color="#00796D"/>
<stop offset="1" stop-color="#38C682"/>
</linearGradient>
<linearGradient id="paint2_linear_2907_218" x1="75.1468" y1="75.6664" x2="26.9691" y2="67.6322" gradientUnits="userSpaceOnUse">
<stop stop-color="#00796D"/>
<stop offset="1" stop-color="#38C682"/>
</linearGradient>
<linearGradient id="paint3_linear_2907_218" x1="75.1468" y1="75.6664" x2="26.9691" y2="67.6322" gradientUnits="userSpaceOnUse">
<stop stop-color="#00796D"/>
<stop offset="1" stop-color="#38C682"/>
</linearGradient>
<linearGradient id="paint4_linear_2907_218" x1="75.1468" y1="75.6664" x2="26.9691" y2="67.6322" gradientUnits="userSpaceOnUse">
<stop stop-color="#00796D"/>
<stop offset="1" stop-color="#38C682"/>
</linearGradient>
<linearGradient id="paint5_linear_2907_218" x1="75.1468" y1="75.6664" x2="26.9691" y2="67.6322" gradientUnits="userSpaceOnUse">
<stop stop-color="#00796D"/>
<stop offset="1" stop-color="#38C682"/>
</linearGradient>
<linearGradient id="paint6_linear_2907_218" x1="75.1468" y1="75.6664" x2="26.9691" y2="67.6322" gradientUnits="userSpaceOnUse">
<stop stop-color="#00796D"/>
<stop offset="1" stop-color="#38C682"/>
</linearGradient>
</defs>
</svg>
