<svg width="108" height="108" viewBox="0 0 108 108" fill="none" xmlns="http://www.w3.org/2000/svg">
<rect y="-0.000244141" width="108" height="108" rx="54" fill="url(#paint0_linear_2907_211)"/>
<rect x="11" y="10.9998" width="86" height="86" rx="43" fill="white"/>
<rect x="11" y="10.9998" width="86" height="86" rx="43" stroke="url(#paint1_linear_2907_211)" stroke-width="2"/>
<path d="M63.078 32.3331H44.9213C37.0347 32.3331 32.333 37.0348 32.333 44.9214V63.0564C32.333 70.9648 37.0347 75.6664 44.9213 75.6664H63.0563C70.943 75.6664 75.6447 70.9648 75.6447 63.0781V44.9214C75.6663 37.0348 70.9647 32.3331 63.078 32.3331ZM52.9813 57.3148L44.9213 65.3748H49.6663C50.5547 65.3748 51.2913 66.1114 51.2913 66.9998C51.2913 67.8881 50.5547 68.6248 49.6663 68.6248H40.9997C40.783 68.6248 40.5663 68.5814 40.3713 68.4948C39.9813 68.3214 39.6563 68.0181 39.483 67.6064C39.418 67.4114 39.3747 67.2164 39.3747 66.9998V58.3331C39.3747 57.4448 40.1113 56.7081 40.9997 56.7081C41.888 56.7081 42.6247 57.4448 42.6247 58.3331V63.0781L50.6847 55.0181C51.313 54.3898 52.353 54.3898 52.9813 55.0181C53.6097 55.6464 53.6097 56.6864 52.9813 57.3148ZM68.6247 49.6664C68.6247 50.5548 67.888 51.2914 66.9997 51.2914C66.1113 51.2914 65.3747 50.5548 65.3747 49.6664V44.9214L57.3147 52.9814C56.9897 53.3064 56.578 53.4581 56.1663 53.4581C55.7547 53.4581 55.343 53.3064 55.018 52.9814C54.3897 52.3531 54.3897 51.3131 55.018 50.6848L63.078 42.6248H58.333C57.4447 42.6248 56.708 41.8881 56.708 40.9998C56.708 40.1114 57.4447 39.3748 58.333 39.3748H66.9997C67.2163 39.3748 67.4113 39.4181 67.628 39.5048C68.018 39.6781 68.343 39.9814 68.5163 40.3931C68.5813 40.5881 68.6247 40.7831 68.6247 40.9998V49.6664Z" fill="url(#paint2_linear_2907_211)"/>
<defs>
<linearGradient id="paint0_linear_2907_211" x1="6.3245e-07" y1="53.5043" x2="108" y2="53.5043" gradientUnits="userSpaceOnUse">
<stop stop-color="white"/>
<stop offset="1" stop-color="white" stop-opacity="0"/>
</linearGradient>
<linearGradient id="paint1_linear_2907_211" x1="98" y1="97.9998" x2="-2.11054" y2="80.8997" gradientUnits="userSpaceOnUse">
<stop stop-color="#00796D"/>
<stop offset="1" stop-color="#38C682"/>
</linearGradient>
<linearGradient id="paint2_linear_2907_211" x1="75.6447" y1="75.6664" x2="26.3711" y2="67.2541" gradientUnits="userSpaceOnUse">
<stop stop-color="#00796D"/>
<stop offset="1" stop-color="#38C682"/>
</linearGradient>
</defs>
</svg>
