<svg width="170" height="34" viewBox="0 0 170 34" fill="none" xmlns="http://www.w3.org/2000/svg">
<g clip-path="url(#clip0_143_722)">
<path fill-rule="evenodd" clip-rule="evenodd" d="M27.8805 6.01333C28.4459 5.06445 28.0089 4.29523 26.9043 4.29523H19.9043C18.7997 4.29523 17.4459 5.06445 16.8805 6.01333L1.22751 32.2819C0.662087 33.2308 1.09915 34 2.20372 34H17.2037C18.3083 34 19.6621 33.2308 20.2275 32.2819L25.989 22.613C26.5544 21.6642 26.1174 20.895 25.0128 20.895H21.0128C19.9082 20.895 19.4712 20.1257 20.0366 19.1769L27.8805 6.01333Z" fill="url(#paint0_linear_143_722)"/>
<rect width="17" height="21" rx="1" transform="matrix(1 0 -0.511893 0.859049 34.4639 0)" fill="url(#paint1_linear_143_722)"/>
<rect width="13" height="13" rx="1" transform="matrix(1 0 -0.511893 0.859049 30.1787 20.6172)" fill="#F5921E"/>
</g>
<path d="M67.4347 25.5H63.4801L72.4034 8.04545H77.1591L80.2784 25.5H76.3239L74.2017 12.0341H74.0653L67.4347 25.5ZM68.3381 18.6392H77.679L77.1847 21.5199H67.8438L68.3381 18.6392ZM86.7812 30.6818C85.5994 30.6818 84.6136 30.5199 83.8239 30.196C83.0398 29.8778 82.4432 29.4432 82.0341 28.892C81.6307 28.3409 81.4091 27.7216 81.3693 27.0341L84.8125 26.5824C84.875 26.8494 84.9943 27.0966 85.1705 27.3239C85.3523 27.5511 85.6108 27.733 85.946 27.8693C86.2869 28.0057 86.7273 28.0739 87.267 28.0739C88.0568 28.0739 88.7443 27.8807 89.3295 27.4943C89.9148 27.1136 90.2756 26.4744 90.4119 25.5767L90.804 23.1818H90.6506C90.4347 23.5455 90.1392 23.8892 89.7642 24.2131C89.3949 24.5369 88.9432 24.8011 88.4091 25.0057C87.8807 25.2102 87.2699 25.3125 86.5767 25.3125C85.5881 25.3125 84.7301 25.0852 84.0028 24.6307C83.2813 24.1705 82.7585 23.4687 82.4347 22.5256C82.1165 21.5767 82.0767 20.3778 82.3153 18.929C82.5653 17.446 83.0142 16.2074 83.6619 15.2131C84.3097 14.2187 85.0767 13.4744 85.9631 12.9801C86.8494 12.4858 87.7727 12.2386 88.733 12.2386C89.4659 12.2386 90.0568 12.3636 90.5057 12.6136C90.9602 12.858 91.3097 13.1648 91.554 13.5341C91.7983 13.8977 91.9716 14.2557 92.0739 14.608H92.2188L92.5767 12.4091H96.1818L93.983 25.6278C93.8068 26.7472 93.3835 27.679 92.7131 28.4233C92.0483 29.1733 91.2045 29.7358 90.1818 30.1108C89.1591 30.4915 88.0256 30.6818 86.7812 30.6818ZM88.1449 22.5852C88.7244 22.5852 89.2443 22.4403 89.7045 22.1506C90.1705 21.8551 90.5597 21.4347 90.8722 20.8892C91.1847 20.3381 91.4034 19.679 91.5284 18.9119C91.6534 18.1449 91.6506 17.4801 91.5199 16.9176C91.3949 16.3494 91.1506 15.9091 90.7869 15.5966C90.429 15.2841 89.9574 15.1278 89.3722 15.1278C88.7699 15.1278 88.2415 15.2898 87.7869 15.6136C87.3324 15.9318 86.9545 16.375 86.6534 16.9432C86.358 17.5114 86.1506 18.1676 86.0312 18.9119C85.9062 19.6676 85.9006 20.321 86.0142 20.8722C86.1335 21.4176 86.3693 21.8409 86.7216 22.142C87.0739 22.4375 87.5483 22.5852 88.1449 22.5852ZM102.821 25.7557C101.48 25.7557 100.369 25.483 99.4886 24.9375C98.608 24.3864 97.9886 23.608 97.6307 22.6023C97.2784 21.5909 97.2188 20.3949 97.4517 19.0142C97.679 17.6676 98.1364 16.4858 98.8239 15.4688C99.517 14.4517 100.386 13.6591 101.432 13.0909C102.477 12.5227 103.642 12.2386 104.926 12.2386C105.79 12.2386 106.571 12.3778 107.27 12.6562C107.974 12.929 108.56 13.3437 109.026 13.9006C109.491 14.4517 109.81 15.142 109.98 15.9716C110.156 16.8011 110.153 17.7727 109.972 18.8864L109.81 19.8835H98.7642L99.1136 17.6335H106.75C106.835 17.1108 106.801 16.6477 106.648 16.2443C106.494 15.8409 106.239 15.5256 105.881 15.2983C105.523 15.0653 105.082 14.9489 104.56 14.9489C104.026 14.9489 103.526 15.0795 103.06 15.3409C102.594 15.6023 102.202 15.946 101.884 16.3722C101.571 16.7926 101.369 17.25 101.278 17.7443L100.878 19.9773C100.764 20.6648 100.787 21.2358 100.946 21.6903C101.111 22.1449 101.395 22.4858 101.798 22.7131C102.202 22.9347 102.713 23.0455 103.332 23.0455C103.736 23.0455 104.114 22.9886 104.466 22.875C104.824 22.7614 105.142 22.5938 105.42 22.3722C105.699 22.1449 105.926 21.8636 106.102 21.5284L109.418 21.75C109.111 22.5568 108.645 23.2614 108.02 23.8636C107.395 24.4602 106.642 24.9261 105.761 25.2614C104.886 25.5909 103.906 25.7557 102.821 25.7557ZM116.165 17.9318L114.904 25.5H111.282L113.464 12.4091H116.915L116.54 14.7188H116.685C117.1 13.9517 117.685 13.3466 118.441 12.9034C119.202 12.4602 120.069 12.2386 121.04 12.2386C121.95 12.2386 122.708 12.4375 123.316 12.8352C123.93 13.233 124.362 13.7983 124.612 14.5312C124.867 15.2642 124.91 16.142 124.739 17.1648L123.342 25.5H119.711L120.998 17.8125C121.129 17.0114 121.026 16.3864 120.691 15.9375C120.362 15.483 119.83 15.2557 119.097 15.2557C118.609 15.2557 118.16 15.3608 117.751 15.571C117.342 15.7812 116.998 16.0881 116.719 16.4915C116.447 16.8892 116.262 17.3693 116.165 17.9318ZM132.118 25.7557C130.783 25.7557 129.678 25.4716 128.803 24.9034C127.928 24.3295 127.311 23.5341 126.953 22.517C126.601 21.4943 126.536 20.304 126.757 18.946C126.973 17.6051 127.422 16.4318 128.104 15.4261C128.786 14.4205 129.652 13.6392 130.703 13.0824C131.754 12.5199 132.939 12.2386 134.257 12.2386C135.587 12.2386 136.689 12.5256 137.564 13.0994C138.439 13.6676 139.055 14.4631 139.413 15.4858C139.771 16.5085 139.839 17.6989 139.618 19.0568C139.396 20.392 138.942 21.5625 138.254 22.5682C137.567 23.5739 136.7 24.358 135.655 24.9205C134.609 25.4773 133.43 25.7557 132.118 25.7557ZM132.476 22.9432C133.089 22.9432 133.632 22.7699 134.104 22.4233C134.581 22.071 134.976 21.5937 135.288 20.9915C135.607 20.3835 135.828 19.696 135.953 18.929C136.078 18.1733 136.087 17.5028 135.979 16.9176C135.871 16.3267 135.643 15.8608 135.297 15.5199C134.956 15.179 134.487 15.0085 133.891 15.0085C133.277 15.0085 132.732 15.1847 132.254 15.5369C131.777 15.8835 131.382 16.3608 131.07 16.9688C130.757 17.5767 130.538 18.267 130.413 19.0398C130.294 19.7898 130.286 20.4602 130.388 21.0511C130.49 21.6364 130.714 22.0994 131.061 22.4403C131.408 22.7756 131.879 22.9432 132.476 22.9432ZM145.814 17.9318L144.553 25.5H140.93L143.112 12.4091H146.564L146.189 14.7188H146.334C146.749 13.9517 147.334 13.3466 148.089 12.9034C148.851 12.4602 149.717 12.2386 150.689 12.2386C151.598 12.2386 152.357 12.4375 152.964 12.8352C153.578 13.233 154.01 13.7983 154.26 14.5312C154.516 15.2642 154.558 16.142 154.388 17.1648L152.99 25.5H149.359L150.646 17.8125C150.777 17.0114 150.675 16.3864 150.339 15.9375C150.01 15.483 149.479 15.2557 148.746 15.2557C148.257 15.2557 147.808 15.3608 147.399 15.571C146.99 15.7812 146.646 16.0881 146.368 16.4915C146.095 16.8892 145.911 17.3693 145.814 17.9318ZM161.766 25.7557C160.425 25.7557 159.315 25.483 158.434 24.9375C157.553 24.3864 156.934 23.608 156.576 22.6023C156.224 21.5909 156.164 20.3949 156.397 19.0142C156.624 17.6676 157.082 16.4858 157.769 15.4688C158.462 14.4517 159.332 13.6591 160.377 13.0909C161.423 12.5227 162.587 12.2386 163.871 12.2386C164.735 12.2386 165.516 12.3778 166.215 12.6562C166.92 12.929 167.505 13.3437 167.971 13.9006C168.437 14.4517 168.755 15.142 168.925 15.9716C169.102 16.8011 169.099 17.7727 168.917 18.8864L168.755 19.8835H157.71L158.059 17.6335H165.695C165.781 17.1108 165.746 16.6477 165.593 16.2443C165.44 15.8409 165.184 15.5256 164.826 15.2983C164.468 15.0653 164.028 14.9489 163.505 14.9489C162.971 14.9489 162.471 15.0795 162.005 15.3409C161.539 15.6023 161.147 15.946 160.829 16.3722C160.516 16.7926 160.315 17.25 160.224 17.7443L159.823 19.9773C159.71 20.6648 159.732 21.2358 159.891 21.6903C160.056 22.1449 160.34 22.4858 160.744 22.7131C161.147 22.9347 161.658 23.0455 162.278 23.0455C162.681 23.0455 163.059 22.9886 163.411 22.875C163.769 22.7614 164.087 22.5938 164.366 22.3722C164.644 22.1449 164.871 21.8636 165.048 21.5284L168.363 21.75C168.056 22.5568 167.59 23.2614 166.965 23.8636C166.34 24.4602 165.587 24.9261 164.707 25.2614C163.832 25.5909 162.852 25.7557 161.766 25.7557Z" fill="white"/>
<defs>
<linearGradient id="paint0_linear_143_722" x1="19.2037" y1="34" x2="4.34592" y2="23.5232" gradientUnits="userSpaceOnUse">
<stop stop-color="#00796D"/>
<stop offset="1" stop-color="#38C682"/>
</linearGradient>
<linearGradient id="paint1_linear_143_722" x1="17" y1="21" x2="-2.53037" y2="18.2994" gradientUnits="userSpaceOnUse">
<stop stop-color="#00796D"/>
<stop offset="1" stop-color="#38C682"/>
</linearGradient>
<clipPath id="clip0_143_722">
<rect width="52" height="34" fill="white"/>
</clipPath>
</defs>
</svg>
