<svg width="108" height="108" viewBox="0 0 108 108" fill="none" xmlns="http://www.w3.org/2000/svg">
<rect y="-0.000244141" width="108" height="108" rx="54" fill="url(#paint0_linear_2907_225)"/>
<rect x="11" y="10.9998" width="86" height="86" rx="43" fill="white"/>
<rect x="11" y="10.9998" width="86" height="86" rx="43" stroke="url(#paint1_linear_2907_225)" stroke-width="2"/>
<path d="M40.4369 62.6664C40.6753 61.6048 40.2419 60.0881 39.4836 59.3298L34.2186 54.0648C32.5719 52.4181 31.9219 50.6631 32.3986 49.1464C32.8969 47.6298 34.4353 46.5898 36.7319 46.1998L43.4919 45.0731C44.4669 44.8998 45.6586 44.0331 46.1136 43.1448L49.8403 35.6698C50.9236 33.5248 52.3969 32.3331 54.0003 32.3331C55.6036 32.3331 57.0769 33.5248 58.1603 35.6698L61.8869 43.1448C62.1686 43.7081 62.7536 44.2498 63.3819 44.6181L40.0469 67.9531C39.7436 68.2564 39.2236 67.9748 39.3103 67.5414L40.4369 62.6664Z" fill="url(#paint2_linear_2907_225)"/>
<path d="M68.5169 59.3298C67.7369 60.1098 67.3036 61.6048 67.5636 62.6664L69.0586 69.1881C69.6869 71.8964 69.2969 73.9331 67.9536 74.9081C67.4119 75.2981 66.7619 75.4931 66.0036 75.4931C64.8986 75.4931 63.5986 75.0814 62.1686 74.2364L55.8203 70.4664C54.8236 69.8814 53.1769 69.8814 52.1803 70.4664L45.8319 74.2364C43.4269 75.6448 41.3686 75.8831 40.0469 74.9081C39.5486 74.5398 39.1803 74.0414 38.9419 73.3914L65.2886 47.0448C66.2853 46.0481 67.6936 45.5931 69.0586 45.8314L71.2469 46.1997C73.5436 46.5897 75.0819 47.6298 75.5803 49.1464C76.0569 50.6631 75.4069 52.4181 73.7603 54.0647L68.5169 59.3298Z" fill="url(#paint3_linear_2907_225)"/>
<defs>
<linearGradient id="paint0_linear_2907_225" x1="6.3245e-07" y1="53.5043" x2="108" y2="53.5043" gradientUnits="userSpaceOnUse">
<stop stop-color="white"/>
<stop offset="1" stop-color="white" stop-opacity="0"/>
</linearGradient>
<linearGradient id="paint1_linear_2907_225" x1="98" y1="97.9998" x2="-2.11054" y2="80.8997" gradientUnits="userSpaceOnUse">
<stop stop-color="#00796D"/>
<stop offset="1" stop-color="#38C682"/>
</linearGradient>
<linearGradient id="paint2_linear_2907_225" x1="75.7328" y1="75.4985" x2="26.2824" y2="66.989" gradientUnits="userSpaceOnUse">
<stop stop-color="#00796D"/>
<stop offset="1" stop-color="#38C682"/>
</linearGradient>
<linearGradient id="paint3_linear_2907_225" x1="75.7328" y1="75.4985" x2="26.2824" y2="66.989" gradientUnits="userSpaceOnUse">
<stop stop-color="#00796D"/>
<stop offset="1" stop-color="#38C682"/>
</linearGradient>
</defs>
</svg>
