<svg width="202" height="32" viewBox="0 0 202 32" fill="none" xmlns="http://www.w3.org/2000/svg">
<path d="M14.9659 1.72752H19.1818V16.9321C19.1818 18.5987 18.7879 20.0646 18 21.3298C17.2197 22.5949 16.1212 23.5836 14.7045 24.2957C13.2879 25.0002 11.6326 25.3525 9.73864 25.3525C7.83712 25.3525 6.17803 25.0002 4.76136 24.2957C3.3447 23.5836 2.24621 22.5949 1.46591 21.3298C0.685606 20.0646 0.295455 18.5987 0.295455 16.9321V1.72752H4.51136V16.5798C4.51136 17.5495 4.72349 18.4131 5.14773 19.1707C5.57955 19.9283 6.18561 20.523 6.96591 20.9548C7.74621 21.379 8.67045 21.5912 9.73864 21.5912C10.8068 21.5912 11.7311 21.379 12.5114 20.9548C13.2992 20.523 13.9053 19.9283 14.3295 19.1707C14.7538 18.4131 14.9659 17.5495 14.9659 16.5798V1.72752ZM27.9801 1.72752V25.0002H23.7642V1.72752H27.9801ZM41.8636 0.636606L34.3636 28.5002H30.7614L38.2614 0.636606H41.8636ZM59.3409 1.72752H63.5568V16.9321C63.5568 18.5987 63.1629 20.0646 62.375 21.3298C61.5947 22.5949 60.4962 23.5836 59.0795 24.2957C57.6629 25.0002 56.0076 25.3525 54.1136 25.3525C52.2121 25.3525 50.553 25.0002 49.1364 24.2957C47.7197 23.5836 46.6212 22.5949 45.8409 21.3298C45.0606 20.0646 44.6705 18.5987 44.6705 16.9321V1.72752H48.8864V16.5798C48.8864 17.5495 49.0985 18.4131 49.5227 19.1707C49.9545 19.9283 50.5606 20.523 51.3409 20.9548C52.1212 21.379 53.0455 21.5912 54.1136 21.5912C55.1818 21.5912 56.1061 21.379 56.8864 20.9548C57.6742 20.523 58.2803 19.9283 58.7045 19.1707C59.1288 18.4131 59.3409 17.5495 59.3409 16.5798V1.72752ZM71.6619 1.72752L76.7869 10.2502H76.9688L82.1165 1.72752H86.9233L79.7528 13.3639L87.0369 25.0002H82.1506L76.9688 16.5343H76.7869L71.6051 25.0002H66.7415L74.0938 13.3639L66.8324 1.72752H71.6619ZM106.057 25.0002H98.1705V1.72752H106.216C108.527 1.72752 110.511 2.19343 112.17 3.12524C113.837 4.04949 115.117 5.37903 116.011 7.11388C116.905 8.84873 117.352 10.9245 117.352 13.3412C117.352 15.7654 116.902 17.8487 116 19.5912C115.106 21.3336 113.814 22.6707 112.125 23.6025C110.443 24.5343 108.42 25.0002 106.057 25.0002ZM102.386 21.3525H105.852C107.473 21.3525 108.826 21.0571 109.909 20.4662C110.992 19.8677 111.807 18.9775 112.352 17.7957C112.898 16.6063 113.17 15.1215 113.17 13.3412C113.17 11.5608 112.898 10.0836 112.352 8.90933C111.807 7.72752 111 6.84494 109.932 6.26161C108.871 5.6707 107.553 5.37524 105.977 5.37524H102.386V21.3525ZM128.903 25.3412C127.153 25.3412 125.642 24.9775 124.369 24.2502C123.104 23.5154 122.131 22.4775 121.449 21.1366C120.767 19.7881 120.426 18.201 120.426 16.3752C120.426 14.5798 120.767 13.004 121.449 11.648C122.138 10.2843 123.1 9.22373 124.335 8.46615C125.57 7.701 127.021 7.31843 128.688 7.31843C129.763 7.31843 130.778 7.49267 131.733 7.84115C132.695 8.18206 133.544 8.71236 134.278 9.43206C135.021 10.1518 135.604 11.0684 136.028 12.1821C136.453 13.2881 136.665 14.6063 136.665 16.1366V17.398H122.358V14.6252H132.722C132.714 13.8374 132.544 13.1366 132.21 12.523C131.877 11.9018 131.411 11.4131 130.812 11.0571C130.222 10.701 129.532 10.523 128.744 10.523C127.903 10.523 127.165 10.7275 126.528 11.1366C125.892 11.5381 125.396 12.0684 125.04 12.7275C124.691 13.379 124.513 14.0949 124.506 14.8752V17.2957C124.506 18.3108 124.691 19.1821 125.062 19.9093C125.434 20.629 125.953 21.1821 126.619 21.5684C127.286 21.9472 128.066 22.1366 128.96 22.1366C129.559 22.1366 130.1 22.0533 130.585 21.8866C131.07 21.7124 131.491 21.4586 131.847 21.1252C132.203 20.7919 132.472 20.379 132.653 19.8866L136.494 20.3184C136.252 21.3336 135.79 22.2199 135.108 22.9775C134.434 23.7275 133.57 24.3109 132.517 24.7275C131.464 25.1366 130.259 25.3412 128.903 25.3412ZM153.94 12.1593L150.19 12.5684C150.084 12.1896 149.899 11.8336 149.634 11.5002C149.376 11.1669 149.027 10.898 148.588 10.6934C148.149 10.4889 147.611 10.3866 146.974 10.3866C146.118 10.3866 145.399 10.5722 144.815 10.9434C144.24 11.3146 143.955 11.7957 143.963 12.3866C143.955 12.8942 144.141 13.3071 144.52 13.6252C144.906 13.9434 145.543 14.2048 146.429 14.4093L149.406 15.0457C151.058 15.4018 152.285 15.9662 153.088 16.7389C153.899 17.5116 154.308 18.523 154.315 19.773C154.308 20.8715 153.986 21.8412 153.349 22.6821C152.721 23.5154 151.846 24.1669 150.724 24.6366C149.603 25.1063 148.315 25.3412 146.861 25.3412C144.724 25.3412 143.005 24.8942 141.702 24.0002C140.399 23.0987 139.622 21.8449 139.372 20.2389L143.384 19.8525C143.565 20.6404 143.952 21.2351 144.543 21.6366C145.134 22.0381 145.902 22.2389 146.849 22.2389C147.827 22.2389 148.611 22.0381 149.202 21.6366C149.8 21.2351 150.099 20.7389 150.099 20.148C150.099 19.648 149.906 19.2351 149.52 18.9093C149.141 18.5836 148.55 18.3336 147.747 18.1593L144.77 17.5343C143.096 17.1858 141.857 16.5987 141.054 15.773C140.251 14.9396 139.853 13.8866 139.861 12.6139C139.853 11.5381 140.145 10.6063 140.736 9.81843C141.334 9.02297 142.164 8.40933 143.224 7.97752C144.293 7.53812 145.524 7.31843 146.918 7.31843C148.963 7.31843 150.573 7.75403 151.747 8.62524C152.929 9.49646 153.66 10.6745 153.94 12.1593ZM157.707 25.0002V7.5457H161.821V25.0002H157.707ZM159.776 5.06843C159.124 5.06843 158.563 4.85252 158.094 4.4207C157.624 3.9813 157.389 3.45479 157.389 2.84115C157.389 2.21994 157.624 1.69342 158.094 1.26161C158.563 0.822213 159.124 0.602516 159.776 0.602516C160.435 0.602516 160.995 0.822213 161.457 1.26161C161.927 1.69342 162.162 2.21994 162.162 2.84115C162.162 3.45479 161.927 3.9813 161.457 4.4207C160.995 4.85252 160.435 5.06843 159.776 5.06843ZM173.642 31.9093C172.165 31.9093 170.896 31.7086 169.835 31.3071C168.775 30.9131 167.922 30.3828 167.278 29.7162C166.634 29.0495 166.188 28.3109 165.938 27.5002L169.642 26.6025C169.809 26.9434 170.051 27.2805 170.369 27.6139C170.688 27.9548 171.116 28.2351 171.653 28.4548C172.199 28.6821 172.884 28.7957 173.71 28.7957C174.877 28.7957 175.843 28.5116 176.608 27.9434C177.373 27.3828 177.756 26.4586 177.756 25.1707V21.8639H177.551C177.339 22.2881 177.028 22.7237 176.619 23.1707C176.218 23.6177 175.684 23.9927 175.017 24.2957C174.358 24.5987 173.528 24.7502 172.528 24.7502C171.188 24.7502 169.972 24.4359 168.881 23.8071C167.797 23.1707 166.934 22.2237 166.29 20.9662C165.653 19.701 165.335 18.1177 165.335 16.2162C165.335 14.2995 165.653 12.6821 166.29 11.3639C166.934 10.0381 167.801 9.03433 168.892 8.35252C169.983 7.66312 171.199 7.31843 172.54 7.31843C173.563 7.31843 174.403 7.49267 175.062 7.84115C175.729 8.18206 176.259 8.59494 176.653 9.07979C177.047 9.55706 177.347 10.0078 177.551 10.4321H177.778V7.5457H181.835V25.2843C181.835 26.7768 181.479 28.0116 180.767 28.9889C180.055 29.9662 179.081 30.6972 177.847 31.1821C176.612 31.6669 175.21 31.9093 173.642 31.9093ZM173.676 21.523C174.547 21.523 175.29 21.3109 175.903 20.8866C176.517 20.4624 176.983 19.8525 177.301 19.0571C177.619 18.2616 177.778 17.3071 177.778 16.1934C177.778 15.0949 177.619 14.1328 177.301 13.3071C176.991 12.4813 176.528 11.8412 175.915 11.3866C175.309 10.9245 174.563 10.6934 173.676 10.6934C172.759 10.6934 171.994 10.9321 171.381 11.4093C170.767 11.8866 170.305 12.5419 169.994 13.3752C169.684 14.201 169.528 15.1404 169.528 16.1934C169.528 17.2616 169.684 18.1972 169.994 19.0002C170.313 19.7957 170.778 20.4169 171.392 20.8639C172.013 21.3033 172.775 21.523 173.676 21.523ZM190.165 14.773V25.0002H186.051V7.5457H189.983V10.5116H190.188C190.589 9.53433 191.229 8.75782 192.108 8.18206C192.994 7.6063 194.089 7.31843 195.392 7.31843C196.597 7.31843 197.646 7.576 198.54 8.09115C199.441 8.6063 200.138 9.35252 200.631 10.3298C201.131 11.3071 201.377 12.4927 201.369 13.8866V25.0002H197.256V14.523C197.256 13.3563 196.953 12.4434 196.347 11.7843C195.748 11.1252 194.919 10.7957 193.858 10.7957C193.138 10.7957 192.498 10.9548 191.938 11.273C191.384 11.5836 190.949 12.0343 190.631 12.6252C190.32 13.2162 190.165 13.9321 190.165 14.773Z" fill="url(#paint0_linear_978_8)"/>
<defs>
<linearGradient id="paint0_linear_978_8" x1="1028" y1="33.0002" x2="968.728" y2="-227.7" gradientUnits="userSpaceOnUse">
<stop stop-color="#00796D"/>
<stop offset="1" stop-color="#38C682"/>
</linearGradient>
</defs>
</svg>
